<?xml version="1.0" encoding="UTF-8" standalone="no"?>
<!DOCTYPE svg PUBLIC "-//W3C//DTD SVG 1.1//EN"
 "http://www.w3.org/Graphics/SVG/1.1/DTD/svg11.dtd">
<!-- Generated by graphviz version 2.46.0 (20210118.1747)
 -->
<!-- Title: operations_on_datastructures/trie_multiple_search.cpp Pages: 1 -->
<svg width="382pt" height="95pt"
 viewBox="0.00 0.00 381.50 95.00" xmlns="http://www.w3.org/2000/svg" xmlns:xlink="http://www.w3.org/1999/xlink">
<g id="graph0" class="graph" transform="scale(1 1) rotate(0) translate(4 91)">
<title>operations_on_datastructures/trie_multiple_search.cpp</title>
<polygon fill="white" stroke="transparent" points="-4,4 -4,-91 377.5,-91 377.5,4 -4,4"/>
<!-- Node1 -->
<g id="node1" class="node">
<title>Node1</title>
<g id="a_node1"><a xlink:title="Trie datastructure with search variants(https://iq.opengenus.org/autocomplete&#45;using&#45;trie&#45;data&#45;structu...">
<polygon fill="#bfbfbf" stroke="black" points="116,-56.5 116,-86.5 261,-86.5 261,-56.5 116,-56.5"/>
<text text-anchor="start" x="124" y="-74.5" font-family="Helvetica,sans-Serif" font-size="10.00">operations_on_datastructures</text>
<text text-anchor="middle" x="188.5" y="-63.5" font-family="Helvetica,sans-Serif" font-size="10.00">/trie_multiple_search.cpp</text>
</a>
</g>
</g>
<!-- Node2 -->
<g id="node2" class="node">
<title>Node2</title>
<g id="a_node2"><a xlink:title=" ">
<polygon fill="white" stroke="#bfbfbf" points="0,-0.5 0,-19.5 49,-19.5 49,-0.5 0,-0.5"/>
<text text-anchor="middle" x="24.5" y="-7.5" font-family="Helvetica,sans-Serif" font-size="10.00">cassert</text>
</a>
</g>
</g>
<!-- Node1&#45;&gt;Node2 -->
<g id="edge1" class="edge">
<title>Node1&#45;&gt;Node2</title>
<path fill="none" stroke="midnightblue" d="M149.63,-56.4C121.75,-46.28 84.56,-32.79 57.99,-23.15"/>
<polygon fill="midnightblue" stroke="midnightblue" points="58.96,-19.78 48.36,-19.66 56.57,-26.36 58.96,-19.78"/>
</g>
<!-- Node3 -->
<g id="node3" class="node">
<title>Node3</title>
<g id="a_node3"><a xlink:title=" ">
<polygon fill="white" stroke="#bfbfbf" points="67.5,-0.5 67.5,-19.5 113.5,-19.5 113.5,-0.5 67.5,-0.5"/>
<text text-anchor="middle" x="90.5" y="-7.5" font-family="Helvetica,sans-Serif" font-size="10.00">cctype</text>
</a>
</g>
</g>
<!-- Node1&#45;&gt;Node3 -->
<g id="edge2" class="edge">
<title>Node1&#45;&gt;Node3</title>
<path fill="none" stroke="midnightblue" d="M165.28,-56.4C149.71,-46.95 129.3,-34.56 113.74,-25.11"/>
<polygon fill="midnightblue" stroke="midnightblue" points="115.12,-21.86 104.76,-19.66 111.49,-27.84 115.12,-21.86"/>
</g>
<!-- Node4 -->
<g id="node4" class="node">
<title>Node4</title>
<g id="a_node4"><a xlink:title=" ">
<polygon fill="white" stroke="#bfbfbf" points="131.5,-0.5 131.5,-19.5 177.5,-19.5 177.5,-0.5 131.5,-0.5"/>
<text text-anchor="middle" x="154.5" y="-7.5" font-family="Helvetica,sans-Serif" font-size="10.00">cstring</text>
</a>
</g>
</g>
<!-- Node1&#45;&gt;Node4 -->
<g id="edge3" class="edge">
<title>Node1&#45;&gt;Node4</title>
<path fill="none" stroke="midnightblue" d="M180.44,-56.4C175.65,-48.02 169.54,-37.33 164.46,-28.42"/>
<polygon fill="midnightblue" stroke="midnightblue" points="167.45,-26.6 159.45,-19.66 161.37,-30.08 167.45,-26.6"/>
</g>
<!-- Node5 -->
<g id="node5" class="node">
<title>Node5</title>
<g id="a_node5"><a xlink:title=" ">
<polygon fill="white" stroke="#bfbfbf" points="195.5,-0.5 195.5,-19.5 249.5,-19.5 249.5,-0.5 195.5,-0.5"/>
<text text-anchor="middle" x="222.5" y="-7.5" font-family="Helvetica,sans-Serif" font-size="10.00">iostream</text>
</a>
</g>
</g>
<!-- Node1&#45;&gt;Node5 -->
<g id="edge4" class="edge">
<title>Node1&#45;&gt;Node5</title>
<path fill="none" stroke="midnightblue" d="M196.56,-56.4C201.35,-48.02 207.46,-37.33 212.54,-28.42"/>
<polygon fill="midnightblue" stroke="midnightblue" points="215.63,-30.08 217.55,-19.66 209.55,-26.6 215.63,-30.08"/>
</g>
<!-- Node6 -->
<g id="node6" class="node">
<title>Node6</title>
<g id="a_node6"><a xlink:title=" ">
<polygon fill="white" stroke="#bfbfbf" points="268,-0.5 268,-19.5 311,-19.5 311,-0.5 268,-0.5"/>
<text text-anchor="middle" x="289.5" y="-7.5" font-family="Helvetica,sans-Serif" font-size="10.00">queue</text>
</a>
</g>
</g>
<!-- Node1&#45;&gt;Node6 -->
<g id="edge5" class="edge">
<title>Node1&#45;&gt;Node6</title>
<path fill="none" stroke="midnightblue" d="M212.44,-56.4C228.63,-46.86 249.91,-34.32 266,-24.84"/>
<polygon fill="midnightblue" stroke="midnightblue" points="267.96,-27.75 274.8,-19.66 264.41,-21.72 267.96,-27.75"/>
</g>
<!-- Node7 -->
<g id="node7" class="node">
<title>Node7</title>
<g id="a_node7"><a xlink:title=" ">
<polygon fill="white" stroke="#bfbfbf" points="329.5,-0.5 329.5,-19.5 373.5,-19.5 373.5,-0.5 329.5,-0.5"/>
<text text-anchor="middle" x="351.5" y="-7.5" font-family="Helvetica,sans-Serif" font-size="10.00">vector</text>
</a>
</g>
</g>
<!-- Node1&#45;&gt;Node7 -->
<g id="edge6" class="edge">
<title>Node1&#45;&gt;Node7</title>
<path fill="none" stroke="midnightblue" d="M227.13,-56.4C255.34,-46.1 293.14,-32.3 319.64,-22.63"/>
<polygon fill="midnightblue" stroke="midnightblue" points="321,-25.86 329.2,-19.14 318.6,-19.28 321,-25.86"/>
</g>
</g>
</svg>
