<?xml version="1.0" encoding="UTF-8" standalone="no"?>
<!DOCTYPE svg PUBLIC "-//W3C//DTD SVG 1.1//EN"
 "http://www.w3.org/Graphics/SVG/1.1/DTD/svg11.dtd">
<!-- Generated by graphviz version 2.46.0 (20210118.1747)
 -->
<!-- Title: trie_operations::Tnode::Delete Pages: 1 -->
<svg width="390pt" height="165pt"
 viewBox="0.00 0.00 390.00 165.00" xmlns="http://www.w3.org/2000/svg" xmlns:xlink="http://www.w3.org/1999/xlink">
<g id="graph0" class="graph" transform="scale(1 1) rotate(0) translate(4 161)">
<title>trie_operations::Tnode::Delete</title>
<polygon fill="white" stroke="transparent" points="-4,4 -4,-161 386,-161 386,4 -4,4"/>
<!-- Node1 -->
<g id="node1" class="node">
<title>Node1</title>
<g id="a_node1"><a xlink:title=" ">
<polygon fill="#bfbfbf" stroke="black" points="0,-63.5 0,-93.5 113,-93.5 113,-63.5 0,-63.5"/>
<text text-anchor="start" x="8" y="-81.5" font-family="Helvetica,sans-Serif" font-size="10.00">trie_operations::Tnode</text>
<text text-anchor="middle" x="56.5" y="-70.5" font-family="Helvetica,sans-Serif" font-size="10.00">::Delete</text>
</a>
</g>
</g>
<!-- Node2 -->
<g id="node2" class="node">
<title>Node2</title>
<g id="a_node2"><a xlink:href="../../d0/d37/classtrie__operations_1_1_tnode.html#a1099c374369414cbd15dec89ab57f739" target="_top" xlink:title=" ">
<polygon fill="white" stroke="black" points="149,-126.5 149,-156.5 262,-156.5 262,-126.5 149,-126.5"/>
<text text-anchor="start" x="157" y="-144.5" font-family="Helvetica,sans-Serif" font-size="10.00">trie_operations::Tnode</text>
<text text-anchor="middle" x="205.5" y="-133.5" font-family="Helvetica,sans-Serif" font-size="10.00">::DeleteFrom</text>
</a>
</g>
</g>
<!-- Node1&#45;&gt;Node2 -->
<g id="edge1" class="edge">
<title>Node1&#45;&gt;Node2</title>
<path fill="none" stroke="midnightblue" d="M92.71,-93.59C112.91,-102.25 138.46,-113.2 160.04,-122.44"/>
<polygon fill="midnightblue" stroke="midnightblue" points="158.75,-125.7 169.32,-126.42 161.51,-119.27 158.75,-125.7"/>
</g>
<!-- Node3 -->
<g id="node3" class="node">
<title>Node3</title>
<g id="a_node3"><a target="_blank" xlink:href="http://en.cppreference.com/w/cpp/string/basic_string/size.html#" xlink:title=" ">
<polygon fill="white" stroke="black" points="298,-110 298,-129 382,-129 382,-110 298,-110"/>
<text text-anchor="middle" x="340" y="-117" font-family="Helvetica,sans-Serif" font-size="10.00">std::string::size</text>
</a>
</g>
</g>
<!-- Node1&#45;&gt;Node3 -->
<g id="edge5" class="edge">
<title>Node1&#45;&gt;Node3</title>
<path fill="none" stroke="midnightblue" d="M113.12,-86.6C163.83,-93.99 238.15,-104.81 287.53,-112"/>
<polygon fill="midnightblue" stroke="midnightblue" points="287.26,-115.5 297.66,-113.48 288.27,-108.57 287.26,-115.5"/>
</g>
<!-- Node4 -->
<g id="node4" class="node">
<title>Node4</title>
<g id="a_node4"><a target="_blank" xlink:href="http://en.cppreference.com/w/cpp/io/manip/endl.html#" xlink:title=" ">
<polygon fill="white" stroke="black" points="178.5,-50 178.5,-69 232.5,-69 232.5,-50 178.5,-50"/>
<text text-anchor="middle" x="205.5" y="-57" font-family="Helvetica,sans-Serif" font-size="10.00">std::endl</text>
</a>
</g>
</g>
<!-- Node1&#45;&gt;Node4 -->
<g id="edge3" class="edge">
<title>Node1&#45;&gt;Node4</title>
<path fill="none" stroke="midnightblue" d="M113.07,-71.32C131.48,-68.94 151.49,-66.35 168.08,-64.21"/>
<polygon fill="midnightblue" stroke="midnightblue" points="168.97,-67.62 178.44,-62.87 168.07,-60.68 168.97,-67.62"/>
</g>
<!-- Node5 -->
<g id="node5" class="node">
<title>Node5</title>
<g id="a_node5"><a xlink:href="../../d0/d37/classtrie__operations_1_1_tnode.html#a6726f1b59bc58daa281888eab2d8e086" target="_top" xlink:title=" ">
<polygon fill="white" stroke="black" points="149,-0.5 149,-30.5 262,-30.5 262,-0.5 149,-0.5"/>
<text text-anchor="start" x="157" y="-18.5" font-family="Helvetica,sans-Serif" font-size="10.00">trie_operations::Tnode</text>
<text text-anchor="middle" x="205.5" y="-7.5" font-family="Helvetica,sans-Serif" font-size="10.00">::numberOfChildren</text>
</a>
</g>
</g>
<!-- Node1&#45;&gt;Node5 -->
<g id="edge4" class="edge">
<title>Node1&#45;&gt;Node5</title>
<path fill="none" stroke="midnightblue" d="M92.71,-63.41C112.91,-54.75 138.46,-43.8 160.04,-34.56"/>
<polygon fill="midnightblue" stroke="midnightblue" points="161.51,-37.73 169.32,-30.58 158.75,-31.3 161.51,-37.73"/>
</g>
<!-- Node2&#45;&gt;Node3 -->
<g id="edge2" class="edge">
<title>Node2&#45;&gt;Node3</title>
<path fill="none" stroke="midnightblue" d="M262.31,-132.23C270.76,-130.83 279.43,-129.39 287.78,-128"/>
<polygon fill="midnightblue" stroke="midnightblue" points="288.46,-131.44 297.75,-126.35 287.31,-124.53 288.46,-131.44"/>
</g>
</g>
</svg>
