<?xml version="1.0" encoding="UTF-8" standalone="no"?>
<!DOCTYPE svg PUBLIC "-//W3C//DTD SVG 1.1//EN"
 "http://www.w3.org/Graphics/SVG/1.1/DTD/svg11.dtd">
<!-- Generated by graphviz version 2.46.0 (20210118.1747)
 -->
<!-- Title: trie_operations::Tnode::SearchFreqSuggestions Pages: 1 -->
<svg width="426pt" height="105pt"
 viewBox="0.00 0.00 426.00 104.50" xmlns="http://www.w3.org/2000/svg" xmlns:xlink="http://www.w3.org/1999/xlink">
<g id="graph0" class="graph" transform="scale(1 1) rotate(0) translate(4 100.5)">
<title>trie_operations::Tnode::SearchFreqSuggestions</title>
<polygon fill="white" stroke="transparent" points="-4,4 -4,-100.5 422,-100.5 422,4 -4,4"/>
<!-- Node1 -->
<g id="node1" class="node">
<title>Node1</title>
<g id="a_node1"><a xlink:title=" ">
<polygon fill="#bfbfbf" stroke="black" points="0,-49.5 0,-79.5 127,-79.5 127,-49.5 0,-49.5"/>
<text text-anchor="start" x="8" y="-67.5" font-family="Helvetica,sans-Serif" font-size="10.00">trie_operations::Tnode</text>
<text text-anchor="middle" x="63.5" y="-56.5" font-family="Helvetica,sans-Serif" font-size="10.00">::SearchFreqSuggestions</text>
</a>
</g>
</g>
<!-- Node2 -->
<g id="node2" class="node">
<title>Node2</title>
<g id="a_node2"><a target="_blank" xlink:href="http://en.cppreference.com/w/cpp/io/manip/endl.html#" xlink:title=" ">
<polygon fill="white" stroke="black" points="350.5,-77 350.5,-96 404.5,-96 404.5,-77 350.5,-77"/>
<text text-anchor="middle" x="377.5" y="-84" font-family="Helvetica,sans-Serif" font-size="10.00">std::endl</text>
</a>
</g>
</g>
<!-- Node1&#45;&gt;Node2 -->
<g id="edge1" class="edge">
<title>Node1&#45;&gt;Node2</title>
<path fill="none" stroke="midnightblue" d="M113.64,-79.53C129.27,-83.61 146.72,-87.47 163,-89.5 223.86,-97.1 239.68,-90.72 301,-89.5 313.81,-89.25 327.83,-88.75 340.28,-88.23"/>
<polygon fill="midnightblue" stroke="midnightblue" points="340.46,-91.73 350.3,-87.8 340.16,-84.73 340.46,-91.73"/>
</g>
<!-- Node3 -->
<g id="node3" class="node">
<title>Node3</title>
<g id="a_node3"><a xlink:href="../../d0/d37/classtrie__operations_1_1_tnode.html#a1a74d2afe49091e6255b64d6db306d90" target="_top" xlink:title=" ">
<polygon fill="white" stroke="black" points="175.5,-49.5 175.5,-79.5 288.5,-79.5 288.5,-49.5 175.5,-49.5"/>
<text text-anchor="start" x="183.5" y="-67.5" font-family="Helvetica,sans-Serif" font-size="10.00">trie_operations::Tnode</text>
<text text-anchor="middle" x="232" y="-56.5" font-family="Helvetica,sans-Serif" font-size="10.00">::SelectionTop_3</text>
</a>
</g>
</g>
<!-- Node1&#45;&gt;Node3 -->
<g id="edge2" class="edge">
<title>Node1&#45;&gt;Node3</title>
<path fill="none" stroke="midnightblue" d="M127.45,-64.5C139.75,-64.5 152.68,-64.5 165.08,-64.5"/>
<polygon fill="midnightblue" stroke="midnightblue" points="165.34,-68 175.34,-64.5 165.34,-61 165.34,-68"/>
</g>
<!-- Node4 -->
<g id="node4" class="node">
<title>Node4</title>
<g id="a_node4"><a xlink:href="../../d0/d37/classtrie__operations_1_1_tnode.html#adec73d8d54cb0305e021f64e1fd9ea4c" target="_top" xlink:title=" ">
<polygon fill="white" stroke="black" points="163,-0.5 163,-30.5 301,-30.5 301,-0.5 163,-0.5"/>
<text text-anchor="start" x="171" y="-18.5" font-family="Helvetica,sans-Serif" font-size="10.00">trie_operations::Tnode</text>
<text text-anchor="middle" x="232" y="-7.5" font-family="Helvetica,sans-Serif" font-size="10.00">::SuggestFreqAutocomplete</text>
</a>
</g>
</g>
<!-- Node1&#45;&gt;Node4 -->
<g id="edge4" class="edge">
<title>Node1&#45;&gt;Node4</title>
<path fill="none" stroke="midnightblue" d="M115.81,-49.4C132.99,-44.34 152.3,-38.66 170.13,-33.42"/>
<polygon fill="midnightblue" stroke="midnightblue" points="171.25,-36.73 179.86,-30.55 169.27,-30.02 171.25,-36.73"/>
</g>
<!-- Node3&#45;&gt;Node2 -->
<g id="edge3" class="edge">
<title>Node3&#45;&gt;Node2</title>
<path fill="none" stroke="midnightblue" d="M288.89,-73.07C306.03,-75.7 324.43,-78.52 339.93,-80.89"/>
<polygon fill="midnightblue" stroke="midnightblue" points="339.73,-84.4 350.14,-82.46 340.79,-77.48 339.73,-84.4"/>
</g>
<!-- Node5 -->
<g id="node5" class="node">
<title>Node5</title>
<g id="a_node5"><a target="_blank" xlink:href="http://en.cppreference.com/w/cpp/utility/pair/make_pair.html#" xlink:title=" ">
<polygon fill="white" stroke="black" points="337,-6 337,-25 418,-25 418,-6 337,-6"/>
<text text-anchor="middle" x="377.5" y="-13" font-family="Helvetica,sans-Serif" font-size="10.00">std::make_pair</text>
</a>
</g>
</g>
<!-- Node4&#45;&gt;Node5 -->
<g id="edge5" class="edge">
<title>Node4&#45;&gt;Node5</title>
<path fill="none" stroke="midnightblue" d="M301.39,-15.5C309.91,-15.5 318.51,-15.5 326.68,-15.5"/>
<polygon fill="midnightblue" stroke="midnightblue" points="326.77,-19 336.77,-15.5 326.77,-12 326.77,-19"/>
</g>
</g>
</svg>
