<?xml version="1.0" encoding="UTF-8" standalone="no"?>
<!DOCTYPE svg PUBLIC "-//W3C//DTD SVG 1.1//EN"
 "http://www.w3.org/Graphics/SVG/1.1/DTD/svg11.dtd">
<!-- Generated by graphviz version 2.46.0 (20210118.1747)
 -->
<!-- Title: trie_operations::Tnode::SearchSuggestions Pages: 1 -->
<svg width="366pt" height="61pt"
 viewBox="0.00 0.00 366.00 61.00" xmlns="http://www.w3.org/2000/svg" xmlns:xlink="http://www.w3.org/1999/xlink">
<g id="graph0" class="graph" transform="scale(1 1) rotate(0) translate(4 57)">
<title>trie_operations::Tnode::SearchSuggestions</title>
<polygon fill="white" stroke="transparent" points="-4,4 -4,-57 362,-57 362,4 -4,4"/>
<!-- Node1 -->
<g id="node1" class="node">
<title>Node1</title>
<g id="a_node1"><a xlink:title=" ">
<polygon fill="#bfbfbf" stroke="black" points="0,-22.5 0,-52.5 113,-52.5 113,-22.5 0,-22.5"/>
<text text-anchor="start" x="8" y="-40.5" font-family="Helvetica,sans-Serif" font-size="10.00">trie_operations::Tnode</text>
<text text-anchor="middle" x="56.5" y="-29.5" font-family="Helvetica,sans-Serif" font-size="10.00">::SearchSuggestions</text>
</a>
</g>
</g>
<!-- Node2 -->
<g id="node2" class="node">
<title>Node2</title>
<g id="a_node2"><a target="_blank" xlink:href="http://en.cppreference.com/w/cpp/io/manip/endl.html#" xlink:title=" ">
<polygon fill="white" stroke="black" points="304,-28 304,-47 358,-47 358,-28 304,-28"/>
<text text-anchor="middle" x="331" y="-35" font-family="Helvetica,sans-Serif" font-size="10.00">std::endl</text>
</a>
</g>
</g>
<!-- Node1&#45;&gt;Node2 -->
<g id="edge1" class="edge">
<title>Node1&#45;&gt;Node2</title>
<path fill="none" stroke="midnightblue" d="M113.14,-39.62C124.97,-39.98 137.4,-40.31 149,-40.5 201.88,-41.37 215.13,-41.78 268,-40.5 276.26,-40.3 285.13,-39.95 293.5,-39.56"/>
<polygon fill="midnightblue" stroke="midnightblue" points="293.95,-43.04 303.76,-39.05 293.6,-36.05 293.95,-43.04"/>
</g>
<!-- Node3 -->
<g id="node3" class="node">
<title>Node3</title>
<g id="a_node3"><a xlink:href="../../d0/d37/classtrie__operations_1_1_tnode.html#a64b5540cf35d66b0187504a4e9d1cff2" target="_top" xlink:title=" ">
<polygon fill="white" stroke="black" points="149,-0.5 149,-30.5 268,-30.5 268,-0.5 149,-0.5"/>
<text text-anchor="start" x="157" y="-18.5" font-family="Helvetica,sans-Serif" font-size="10.00">trie_operations::Tnode</text>
<text text-anchor="middle" x="208.5" y="-7.5" font-family="Helvetica,sans-Serif" font-size="10.00">::SuggestAutocomplete</text>
</a>
</g>
</g>
<!-- Node1&#45;&gt;Node3 -->
<g id="edge2" class="edge">
<title>Node1&#45;&gt;Node3</title>
<path fill="none" stroke="midnightblue" d="M113.35,-29.31C121.68,-28.09 130.33,-26.82 138.88,-25.56"/>
<polygon fill="midnightblue" stroke="midnightblue" points="139.45,-29.02 148.84,-24.1 138.44,-22.09 139.45,-29.02"/>
</g>
<!-- Node3&#45;&gt;Node2 -->
<g id="edge3" class="edge">
<title>Node3&#45;&gt;Node2</title>
<path fill="none" stroke="midnightblue" d="M268.34,-26.24C276.98,-27.82 285.66,-29.4 293.66,-30.87"/>
<polygon fill="midnightblue" stroke="midnightblue" points="293.28,-34.35 303.74,-32.71 294.53,-27.47 293.28,-34.35"/>
</g>
</g>
</svg>
