<?xml version="1.0" encoding="UTF-8" standalone="no"?>
<!DOCTYPE svg PUBLIC "-//W3C//DTD SVG 1.1//EN"
 "http://www.w3.org/Graphics/SVG/1.1/DTD/svg11.dtd">
<!-- Generated by graphviz version 2.46.0 (20210118.1747)
 -->
<!-- Title: trie_operations::Tnode Pages: 1 -->
<svg width="144pt" height="106pt"
 viewBox="0.00 0.00 144.00 106.00" xmlns="http://www.w3.org/2000/svg" xmlns:xlink="http://www.w3.org/1999/xlink">
<g id="graph0" class="graph" transform="scale(1 1) rotate(0) translate(4 102)">
<title>trie_operations::Tnode</title>
<polygon fill="white" stroke="transparent" points="-4,4 -4,-102 140,-102 140,4 -4,4"/>
<!-- Node1 -->
<g id="node1" class="node">
<title>Node1</title>
<g id="a_node1"><a xlink:title=" ">
<polygon fill="#bfbfbf" stroke="black" points="11.5,-78.5 11.5,-97.5 124.5,-97.5 124.5,-78.5 11.5,-78.5"/>
<text text-anchor="middle" x="68" y="-85.5" font-family="Helvetica,sans-Serif" font-size="10.00">trie_operations::Tnode</text>
</a>
</g>
</g>
<!-- Node2 -->
<g id="node2" class="node">
<title>Node2</title>
<g id="a_node2"><a target="_blank" xlink:href="http://en.cppreference.com/w/cpp/container/vector.html" xlink:title=" ">
<polygon fill="white" stroke="black" points="0,-0.5 0,-30.5 136,-30.5 136,-0.5 0,-0.5"/>
<text text-anchor="start" x="8" y="-18.5" font-family="Helvetica,sans-Serif" font-size="10.00">std::vector&lt; trie_operations</text>
<text text-anchor="middle" x="68" y="-7.5" font-family="Helvetica,sans-Serif" font-size="10.00">::Tnode * &gt;</text>
</a>
</g>
</g>
<!-- Node1&#45;&gt;Node2 -->
<g id="edge2" class="edge">
<title>Node1&#45;&gt;Node2</title>
<path fill="none" stroke="#9a32cd" stroke-dasharray="5,2" d="M41.82,-72.58C33.8,-66.13 28.01,-57.97 32,-49 35.15,-41.92 40.68,-35.73 46.48,-30.71"/>
<polygon fill="#9a32cd" stroke="#9a32cd" points="40.08,-75.63 50.31,-78.41 44.05,-69.86 40.08,-75.63"/>
<text text-anchor="middle" x="53.5" y="-52" font-family="Helvetica,sans-Serif" font-size="10.00"> elements</text>
</g>
<!-- Node2&#45;&gt;Node1 -->
<g id="edge1" class="edge">
<title>Node2&#45;&gt;Node1</title>
<path fill="none" stroke="#9a32cd" stroke-dasharray="5,2" d="M77.97,-40.49C79.52,-46.81 80.25,-53.63 79,-60 77.75,-66.36 75,-73.11 72.57,-78.27"/>
<polygon fill="#9a32cd" stroke="#9a32cd" points="81.16,-38.98 74.79,-30.52 74.49,-41.11 81.16,-38.98"/>
<text text-anchor="middle" x="96" y="-52" font-family="Helvetica,sans-Serif" font-size="10.00"> english</text>
</g>
</g>
</svg>
